<?xml version="1.0" encoding="UTF-8"?>
<svg width="200px" height="200px" viewBox="0 0 200 200" version="1.1"
    xmlns="http://www.w3.org/2000/svg"
    xmlns:xlink="http://www.w3.org/1999/xlink">
    <circle id="Oval" fill="#000000" cx="100" cy="100" r="100"></circle>
    <g id="Apple-Logo" transform="translate(25.000000, 25.000000)" fill="#FFFFFF" fill-rule="nonzero">
        <path d="M75.4205395,53.032458 C72.8020501,53.032458 68.748772,50.0726773 64.4802757,50.1796573 C58.84873,50.2509774 53.6834907,53.4247181 50.7780436,58.4527793 C44.9312797,68.5445618 49.2715155,83.4504454 54.9748006,91.6522474 C57.7726385,95.6461683 61.0726525,100.139329 65.448758,99.9966894 C69.645515,99.8183893 71.2237825,97.2865287 76.3172824,97.2865287 C81.3749125,97.2865287 82.8097012,99.9966894 87.2575462,99.8897093 C91.7771306,99.8183893 94.6467079,95.8244684 97.4086762,91.7948874 C100.601081,87.1590863 101.928261,82.6659252 102,82.4163051 C101.892391,82.3806451 93.2119193,79.0642643 93.1043101,69.0794619 C93.0325707,60.7350199 99.9554261,56.7410989 100.278254,56.5627989 C96.3325847,50.8215375 90.2706024,50.1796573 88.1542891,50.0370173 C82.6303526,49.6090972 78.0031591,53.032458 75.4205395,53.032458 L75.4205395,53.032458 Z M84.5961058,44.3701346 C86.8535896,41.6282007 88.3470019,37.7965239 87.9302357,34 C84.7002973,34.140612 80.810479,36.1794859 78.4835342,38.9214198 C76.399703,41.3469767 74.5937159,45.2489596 75.0799432,48.9751774 C78.6571868,49.2564014 82.3386219,47.1120685 84.5961058,44.3701346" id="Shape"></path>
    </g>
</svg>