<?xml version="1.0" encoding="UTF-8"?>
<svg width="200px" height="200px" viewBox="0 0 200 200" version="1.1" xmlns="http://www.w3.org/2000/svg" xmlns:xlink="http://www.w3.org/1999/xlink">
    <!-- Generator: Sketch 58 (84663) - https://sketch.com -->
    <title>Group</title>
    <desc>Created with Sketch.</desc>
    <g id="Page-1" stroke="none" stroke-width="1" fill="none" fill-rule="evenodd">
        <g id="apple">
            <g id="Group">
                <circle id="Oval" fill="#000000" cx="100" cy="100" r="100"></circle>
                <path d="M100.121389,86.1664985 C97.4844412,86.1664985 93.4025902,83.1814665 89.1040037,83.2893592 C83.4327594,83.3612877 78.2311085,86.5621052 75.3051799,91.6330632 C69.4172001,101.810943 73.7880317,116.843996 79.5315212,125.115772 C82.3490821,129.143767 85.672359,133.675261 90.0793132,133.531404 C94.3056545,133.351583 95.8950479,130.798122 101.024454,130.798122 C106.117737,130.798122 107.56264,133.531404 112.041839,133.423512 C116.593284,133.351583 119.48309,129.323588 122.264528,125.259629 C125.479437,120.584277 126.815972,116.052783 126.888218,115.801033 C126.77985,115.765069 118.038187,112.420395 117.929819,102.350407 C117.857574,93.9347747 124.829231,89.9067796 125.154334,89.7269584 C121.180851,83.9367156 115.076135,83.2893592 112.944903,83.1455023 C107.382027,82.7139314 102.722215,86.1664985 100.121389,86.1664985 L100.121389,86.1664985 Z M109.513259,77.6789376 C111.861226,74.8737268 113.414497,70.9536245 112.981026,67.0694864 C109.621626,67.2133434 105.575898,69.2992694 103.155686,72.1044802 C100.988331,74.5860128 99.1099571,78.5780436 99.6156731,82.3902532 C103.336298,82.6779671 107.165291,80.4841484 109.513259,77.6789376" id="Shape" fill="#FFFFFF" fill-rule="nonzero"></path>
            </g>
        </g>
    </g>
</svg>