<?xml version="1.0" encoding="UTF-8"?>
<svg width="200px" height="200px" viewBox="0 0 200 200" version="1.1" xmlns="http://www.w3.org/2000/svg" xmlns:xlink="http://www.w3.org/1999/xlink">
    <!-- Generator: Sketch 58 (84663) - https://sketch.com -->
    <title>athenahealth</title>
    <desc>Created with Sketch.</desc>
    <g id="Page-1" stroke="none" stroke-width="1" fill="none" fill-rule="evenodd">
        <g id="athenahealth">
            <circle id="Oval" stroke="#5A2D81" stroke-width="6" fill="#FFFFFF" cx="100" cy="100" r="97"></circle>
            <g transform="translate(66.000000, 63.000000)" fill-rule="nonzero">
                <path d="M27.5917893,35.3125 C27.5917893,35.3125 20.2685335,26.40625 20.1127195,16.5625 C19.9569056,6.875 26.9685335,-4.61852778e-14 26.9685335,-4.61852778e-14 C26.9685335,-4.61852778e-14 34.2917893,8.90625 34.4476032,18.75 C34.6034172,28.4375 27.5917893,35.3125 27.5917893,35.3125 Z" id="Path" fill="#BACA33"></path>
                <path d="M66.7010916,24.21875 C66.7010916,24.21875 67.4801614,43.90625 57.8196963,57.5 C48.0034172,70.9375 31.3313242,73.28125 31.3313242,73.28125 C31.3313242,73.28125 30.5522544,53.59375 40.2127195,40 C49.8731846,26.40625 66.7010916,24.21875 66.7010916,24.21875 Z M39.4336497,21.875 C39.4336497,24.53125 41.4592311,26.5625 44.1080683,26.5625 C46.7569056,26.5625 48.7824869,24.53125 48.7824869,21.875 C48.7824869,19.21875 46.7569056,17.1875 44.1080683,17.1875 C41.4592311,17.1875 39.4336497,19.375 39.4336497,21.875 Z" id="Shape" fill="#799B3E"></path>
                <path d="M27.2801614,55.625 L27.2801614,55.625 C27.2801614,55.46875 27.2801614,55.46875 27.2801614,55.625 C27.2801614,51.5625 26.6569056,39.84375 20.4243474,31.25 C12.7894637,20.9375 0.0127195064,19.21875 0.0127195064,19.21875 C0.0127195064,19.21875 -0.610536308,34.375 6.86853346,44.6875 C12.1662079,52.03125 20.2685335,55 24.4755102,56.09375 L24.4755102,72.34375 C24.4755102,73.125 25.098766,73.75 25.8778358,73.75 C26.6569056,73.75 27.2801614,73.125 27.2801614,72.34375 L27.2801614,56.09375 C27.2801614,55.9375 27.2801614,55.78125 27.2801614,55.625 Z" id="Path" fill="#BACA33"></path>
            </g>
        </g>
    </g>
</svg>