<?xml version="1.0" encoding="UTF-8"?>
<svg width="200px" height="200px" viewBox="0 0 200 200" version="1.1" xmlns="http://www.w3.org/2000/svg" xmlns:xlink="http://www.w3.org/1999/xlink">
    <!-- Generator: Sketch 58 (84663) - https://sketch.com -->
    <title>athenahealth-circle</title>
    <desc>Created with Sketch.</desc>
    <g id="athenahealth-circle" stroke="none" stroke-width="1" fill="none" fill-rule="evenodd">
        <g id="athenahealth">
            <circle id="Oval" fill="#5A2D81" cx="100" cy="100" r="100"></circle>
            <circle id="Oval" fill="#FFFFFF" cx="100" cy="100" r="94"></circle>
            <g transform="translate(50.000000, 50.000000)" id="Group">
                <g transform="translate(8.000000, 2.000000)">
                    <path d="M35.4163265,45.2 C35.4163265,45.2 26.0163265,33.8 25.8163265,21.2 C25.6163265,8.8 34.6163265,0 34.6163265,0 C34.6163265,0 44.0163265,11.4 44.2163265,24 C44.4163265,36.4 35.4163265,45.2 35.4163265,45.2 Z" id="Path" fill="#BACA33" fill-rule="nonzero"></path>
                    <path d="M85.6163265,31 C85.6163265,31 86.6163265,56.2 74.2163265,73.6 C61.6163265,90.8 40.2163265,93.8 40.2163265,93.8 C40.2163265,93.8 39.2163265,68.6 51.6163265,51.2 C64.0163265,33.8 85.6163265,31 85.6163265,31 Z M50.6163265,28 C50.6163265,31.4 53.2163265,34 56.6163265,34 C60.0163265,34 62.6163265,31.4 62.6163265,28 C62.6163265,24.6 60.0163265,22 56.6163265,22 C53.2163265,22 50.6163265,24.8 50.6163265,28 Z" id="Shape" fill="#799B3E" fill-rule="nonzero"></path>
                    <path d="M35.0163265,71.2 L35.0163265,71.2 C35.0163265,71 35.0163265,71 35.0163265,71.2 C35.0163265,66 34.2163265,51 26.2163265,40 C16.4163265,26.8 0.0163265306,24.6 0.0163265306,24.6 C0.0163265306,24.6 -0.783673469,44 8.81632653,57.2 C15.6163265,66.6 26.0163265,70.4 31.4163265,71.8 L31.4163265,92.6 C31.4163265,93.6 32.2163265,94.4 33.2163265,94.4 C34.2163265,94.4 35.0163265,93.6 35.0163265,92.6 L35.0163265,71.8 C35.0163265,71.6 35.0163265,71.4 35.0163265,71.2 Z" id="Path" fill="#BACA33" fill-rule="nonzero"></path>
                </g>
            </g>
        </g>
    </g>
</svg>