<?xml version="1.0" encoding="UTF-8"?>
<svg width="200px" height="200px" viewBox="0 0 200 200" version="1.1" xmlns="http://www.w3.org/2000/svg" xmlns:xlink="http://www.w3.org/1999/xlink">
    <!-- Generator: Sketch 58 (84663) - https://sketch.com -->
    <title>jnj-circle</title>
    <desc>Created with Sketch.</desc>
    <g id="Page-1" stroke="none" stroke-width="1" fill="none" fill-rule="evenodd">
        <g id="jnj-circle">
            <g id="jnj">
                <circle id="Oval" fill="#D51900" cx="100" cy="100" r="100"></circle>
                <g id="J&amp;J-logo" transform="translate(50.000000, 50.000000)" fill="#FFFFFF" fill-rule="nonzero">
                    <path d="M27.2854918,55.0115492 C21.3839809,61.9997998 18.7101239,71.080403 18.682944,77.2646954 C18.6693541,80.8515851 19.9230431,82.2121297 21.5266768,82.2361795 C24.7441373,82.2877154 28.2741724,76.6187803 28.3591087,66.4078261 C28.3896884,62.7213006 27.9072381,58.862989 27.2854918,55.0115492 M23.9083456,54.5958272 C24.774717,53.4963974 25.6954449,52.441632 26.6773322,51.4452738 C25.7633977,46.2435965 24.8052935,41.1518623 24.7441373,36.6132786 C24.6456079,29.844914 26.1337288,24.2275148 27.5504969,20.2730032 C28.6988632,17.0812211 29.5720279,15.0026116 29.8574196,14.1780391 C29.9287691,13.9718961 29.9763354,13.7279602 29.9015892,13.6180172 C29.840433,13.5218171 29.724917,13.484024 29.507475,13.4943311 C28.0669237,13.5664813 25.8755138,14.8583112 23.8947557,17.2186498 C20.718065,21.0048112 17.7859961,27.5292399 17.7859961,35.4691845 C17.7859961,43.9347938 19.8822734,49.2223639 23.9083456,54.5958272 M68.7931165,35.4657487 C68.7931165,44.0138153 70.9267669,49.3185643 75.0275853,54.7401273 C75.3911198,54.2282053 75.7682475,53.7162834 76.1521685,53.2043615 C76.6346156,52.5618822 77.1408492,51.9262743 77.6606694,51.3009735 C76.7535315,46.150832 75.8124139,41.1106336 75.7512577,36.6098428 C75.6527315,29.844914 77.1408492,24.224079 78.5576173,20.2730032 C79.7025869,17.0777853 80.5791483,15.0026116 80.8645432,14.1780391 C80.9358895,13.9718961 80.9800591,13.7279602 80.9087096,13.6180172 C80.8475534,13.5218171 80.7320374,13.484024 80.5145954,13.4943311 C79.0740441,13.5664813 76.8826374,14.8583112 74.9018761,17.2186498 C71.7251854,21.0048112 68.7931165,27.5292399 68.7931165,35.4657487 M78.3163953,55.1627208 C72.8973349,62.5529504 69.5643552,70.7162166 69.6900644,77.2646954 C69.7614139,80.8447138 70.9301635,82.2086939 72.5337972,82.2361795 C75.7512577,82.2877154 79.2812928,76.6187803 79.3662323,66.4078261 C79.3968088,62.7694006 78.9279484,58.9660607 78.3163953,55.1627208 M64.7738376,51.5105523 C62.0999838,51.6170595 60.1837754,52.1942603 58.2335939,52.7199252 C58.1010881,54.6095702 57.8089031,56.1384647 57.4045956,57.3169161 C57.0580477,58.3235814 56.5654041,58.9626249 55.967441,58.9626249 C55.1894058,58.9626249 54.9855537,58.2583029 54.8768343,56.6813081 C54.8020881,55.6127998 54.7579184,54.4961914 54.7613183,53.4860902 C52.4000327,53.9121193 50.9730713,54.049548 48.621979,53.9464766 C43.607226,53.7265906 39.0919069,51.7201312 39.1258833,47.9545842 C39.1292799,47.6419336 39.1632564,47.3498977 39.2278093,47.0681687 C37.0805691,47.5732193 34.817816,48.5008631 32.6196128,50.0366292 C32.8676313,53.6784906 33.0035338,56.5438794 33.0001371,59.4917257 C33.0001371,71.2693672 27.2820919,87.4309855 20.1846516,86.9912134 C16.2639021,86.750713 14.7825778,82.2602297 15.2208617,76.9692237 C15.8018382,69.9947158 18.1393406,63.0889225 22.0193172,57.2138444 C15.9751137,51.1360591 12.0000006,45.3777954 12.0000006,35.4657487 C11.9966046,20.8021037 25.3590902,11.0068713 31.4406699,11 C32.2594749,11 32.5346733,11.2989072 32.5380732,11.9173367 C32.5448666,12.4601801 32.4293506,13.2847526 32.2628716,14.1058892 C31.926517,15.7859554 30.7407776,21.3380758 30.774754,27.4983184 C30.8155237,34.4796977 31.8959372,41.0487906 32.3919775,46.896383 C37.311601,44.0000726 42.2923807,43.3610288 46.5698714,43.9554081 C50.4090814,44.4879444 52.947036,46.1130392 54.3128444,47.7140838 C53.8779603,44.7456233 52.8145335,43.2820073 51.8292495,41.8561845 C51.5200746,41.4095411 51.5472545,41.0625336 51.9685486,40.7567547 C52.3116966,40.5059471 54.0784126,39.5679961 54.9583738,39.2897029 C55.4408242,39.1385312 55.9300679,39.1282244 56.1882797,39.4236961 C57.4793418,40.9182332 58.1418611,44.7662376 58.2845569,48.6966993 C58.3049402,49.2292356 58.3117368,49.7411575 58.3151335,50.2359009 C60.0648628,49.8545364 62.0048511,49.4182001 64.0433687,49.3151284 C64.7330679,49.2807714 65.7081586,49.3048213 66.6458763,49.39415 C64.3423535,45.5667599 63.0071217,41.2137053 63.0071217,35.4657487 C63.0071217,20.8021037 76.3696105,11.0034355 82.451187,11 C83.269992,11 83.5417969,11.2989072 83.5485903,11.9173367 C83.551987,12.4601801 83.436471,13.2847526 83.269992,14.1058892 C82.9302407,15.7859554 81.747898,21.3380758 81.7818744,27.4983184 C81.8192475,33.9024969 82.7297853,39.9562324 83.2631987,45.4258957 C86.4840558,42.4402567 89.7015163,40.0249467 92.1171616,38.5647666 C93.3096944,37.83983 94.427481,37.74363 94.8249919,38.5097949 C95.2191061,39.2759602 94.9982674,39.887518 93.6392557,40.729269 C90.0005011,42.9934073 86.5927784,45.8175675 83.551987,48.9578137 C83.8475719,53.12534 84.0106542,56.2587149 84.0106542,59.4917257 C84.0072575,71.2693672 78.2892123,87.4309855 71.1951719,86.9912134 C67.2710225,86.750713 65.8746376,82.267101 66.2279821,76.9692237 C66.6730593,70.321109 69.1872308,63.7485803 73.2234963,57.4165519 C71.3752408,55.5646998 69.7172443,53.7540763 68.3004761,51.8506886 C66.9890275,51.5552168 65.7727116,51.4727595 64.7738376,51.5105523 M54.214315,50.8646372 C52.3354798,48.1779057 49.3694377,46.9101257 47.0183454,46.8414113 C45.744273,46.8036185 44.8812984,47.2811834 44.7963621,48.2363129 C44.6366765,50.1156508 47.252774,51.0707806 50.4974175,51.1429304 C51.8496327,51.1738519 52.9266496,51.1120089 54.214315,50.8646372"></path>
                </g>
            </g>
        </g>
    </g>
</svg>