<?xml version="1.0" encoding="UTF-8"?>
<svg width="200px" height="200px" viewBox="0 0 200 200" version="1.1" xmlns="http://www.w3.org/2000/svg" xmlns:xlink="http://www.w3.org/1999/xlink">
    <!-- Generator: Sketch 58 (84663) - https://sketch.com -->
    <title>jnj</title>
    <desc>Created with Sketch.</desc>
    <g id="Page-1" stroke="none" stroke-width="1" fill="none" fill-rule="evenodd">
        <g id="jnj">
            <circle id="Oval" fill="#D51900" cx="100" cy="100" r="100"></circle>
            <path d="M74.1934105,106.43245 C68.3274509,113.32875 65.6697014,122.289871 65.6426853,128.392792 C65.6291773,131.932485 66.875314,133.275128 68.4692871,133.298861 C71.6673653,133.349719 75.1761353,127.755375 75.2605598,117.678776 C75.2909553,114.040757 74.8114113,110.233213 74.1934105,106.43245 M70.8366086,106.022198 C71.6977609,104.937234 72.6129422,103.896347 73.5889145,102.913099 C72.6804856,97.779865 71.7281532,92.7551272 71.6673653,88.2762618 C71.5694295,81.5969546 73.0485858,76.0534685 74.4568192,72.15099 C75.5982677,69.0012051 76.4661724,66.9499456 76.7498448,66.1362228 C76.8207645,65.9327922 76.8680443,65.692066 76.7937483,65.5835696 C76.7329605,65.4886353 76.6181404,65.4513394 76.4020083,65.461511 C74.970135,65.5327118 72.7919263,66.807544 70.8231006,69.1368255 C67.6655465,72.8731689 64.7511407,79.3117499 64.7511407,87.1472216 C64.7511407,95.5014412 66.8347898,100.719438 70.8366086,106.022198 M115.450989,87.143831 C115.450989,95.579423 117.571786,100.814373 121.647901,106.164599 C122.009246,105.659413 122.384101,105.154227 122.76571,104.649041 C123.24525,104.015015 123.748434,103.387771 124.265123,102.770698 C123.36345,97.6883211 122.428002,92.714441 122.367214,88.2728711 C122.269281,81.5969546 123.748434,76.0500779 125.156668,72.15099 C126.29474,68.9978144 127.166021,66.9499456 127.449697,66.1362228 C127.520613,65.9327922 127.564517,65.692066 127.493597,65.5835696 C127.432809,65.4886353 127.317989,65.4513394 127.101857,65.461511 C125.669984,65.5327118 123.491778,66.807544 121.522949,69.1368255 C118.365395,72.8731689 115.450989,79.3117499 115.450989,87.143831 M124.916899,106.581632 C119.530483,113.874622 116.217582,121.930477 116.342534,128.392792 C116.413454,131.925704 117.575163,133.271737 119.169136,133.298861 C122.367214,133.349719 125.875984,127.755375 125.960412,117.678776 C125.990804,114.088224 125.524768,110.334928 124.916899,106.581632 M111.455923,102.977519 C108.798177,103.082625 106.893512,103.652231 104.955078,104.170979 C104.823371,106.03576 104.532946,107.544538 104.131074,108.707483 C103.786614,109.700903 103.296938,110.331538 102.702577,110.331538 C101.929229,110.331538 101.726605,109.636483 101.61854,108.080238 C101.544244,107.025789 101.500341,105.923873 101.50372,104.927063 C99.156659,105.347486 97.7382938,105.483107 95.4013647,105.381391 C90.4168211,105.164399 85.9287026,103.18434 85.9624743,99.4683397 C85.9658506,99.1598029 85.9996223,98.8716096 86.0637864,98.5935875 C83.9294813,99.0919927 81.6803593,100.007431 79.4953982,101.522989 C79.7419227,105.116931 79.8770065,107.944618 79.8736302,110.853677 C79.8736302,122.476349 74.1900311,138.425315 67.1353465,137.991329 C63.2382159,137.753993 61.7658153,133.322595 62.2014589,128.101208 C62.7789356,121.21847 65.1023566,114.403542 68.9589598,108.605768 C62.9511673,102.607953 59.0000006,96.925456 59.0000006,87.143831 C58.9966251,72.6731286 72.2786137,63.0067809 78.3235574,63 C79.1374299,63 79.4109705,63.2949742 79.4143499,63.9052665 C79.4211023,64.4409672 79.3062822,65.2546901 79.1408061,66.0650223 C78.8064777,67.7229823 77.6278813,73.2020484 77.661653,79.2812353 C77.7021772,86.1707543 78.7760822,92.6534118 79.2691343,98.4240622 C84.1591215,95.5658611 89.1098965,94.9352258 93.3616192,95.5217843 C97.1777014,96.0473135 99.7003671,97.6510255 101.057948,99.2310038 C100.625683,96.3016019 99.5686628,94.8572441 98.5893142,93.4501821 C98.2820019,93.0094156 98.309018,92.6669739 98.7277742,92.3652184 C99.0688551,92.117711 100.824928,91.1921014 101.699588,90.91747 C102.179132,90.7682874 102.665429,90.7581162 102.922085,91.0497001 C104.20537,92.5245723 104.863898,96.321945 105.005734,100.20069 C105.025995,100.726219 105.03275,101.231405 105.036127,101.719639 C106.775315,101.343292 108.703617,100.912697 110.729854,100.810982 C111.415399,100.777077 112.384615,100.80081 113.316684,100.888964 C111.027038,97.1119341 109.69985,92.8161565 109.69985,87.143831 C109.69985,72.6731286 122.981842,63.0033903 129.026782,63 C129.840655,63 130.110822,63.2949742 130.117575,63.9052665 C130.120951,64.4409672 130.006131,65.2546901 129.840655,66.0650223 C129.50295,67.7229823 128.32773,73.2020484 128.361502,79.2812353 C128.39865,85.6011483 129.303702,91.5752293 129.833902,96.9729234 C133.035357,94.0265691 136.233435,91.6430395 138.634528,90.2020723 C139.819877,89.4866743 140.93093,89.3917401 141.326046,90.1478239 C141.717786,90.9039081 141.498278,91.5074191 140.147453,92.3380944 C136.530619,94.5724414 133.143424,97.3594416 130.120951,100.458369 C130.414755,104.571059 130.576855,107.663205 130.576855,110.853677 C130.573479,122.476349 124.88988,138.425315 117.838574,137.991329 C113.938064,137.753993 112.550092,133.329376 112.901307,128.101208 C113.343704,121.540568 115.842729,115.05452 119.85468,108.805808 C118.017559,106.978322 116.36955,105.191523 114.961317,103.31318 C113.657768,103.021596 112.44878,102.940223 111.455923,102.977519 M100.960012,102.340103 C99.092495,99.6887228 96.1443206,98.437624 93.8073915,98.3698138 C92.5409943,98.3325182 91.6832183,98.8037994 91.5987937,99.7463614 C91.44007,101.600971 94.0404079,102.543533 97.2655054,102.614734 C98.6095747,102.645249 99.6801035,102.584219 100.960012,102.340103" id="J&amp;J-logo" fill="#FFFFFF" fill-rule="nonzero"></path>
        </g>
    </g>
</svg>