<?xml version="1.0" encoding="UTF-8"?>
<svg width="200px" height="200px" viewBox="0 0 200 200" version="1.1" xmlns="http://www.w3.org/2000/svg" xmlns:xlink="http://www.w3.org/1999/xlink">
    <!-- Generator: Sketch 58 (84663) - https://sketch.com -->
    <title>RIT_hor</title>
    <desc>Created with Sketch.</desc>
    <g id="Page-1" stroke="none" stroke-width="1" fill="none" fill-rule="evenodd">
        <g id="rit">
            <g id="RIT_hor">
                <circle id="Oval" fill="#F76902" cx="100" cy="100" r="100"></circle>
                <path d="M105.674874,82.6331571 C106.416829,80.6853243 108.867,80.6853243 110.83411,80.6853243 L111.199962,80.6853243 L111.199962,78 C111.199962,78 103.53138,78.1696975 101.185907,78.1696975 C98.7695595,78.1696975 91.6034198,78 91.6034198,78 L91.6034198,80.6853243 L91.9692716,80.6853243 C93.9362773,80.6853243 96.3865526,80.6853243 97.1267295,82.6297632 C97.6505778,85.39902 97.8572507,88.2192842 97.7427239,91.0356419 L97.7427239,108.190223 C97.8570659,111.005943 97.6509954,113.825563 97.128507,116.594422 C96.3865526,118.540541 93.9362773,118.540541 91.9692716,118.540541 L91.6034198,118.540541 L91.6034198,121.227666 C91.6034198,121.220947 97.8027097,120.96273 101.196883,120.96273 C105.103904,120.96273 111.199962,121.227666 111.199962,121.227666 L111.199962,118.540541 L110.83411,118.540541 C108.867,118.540541 106.416829,118.540541 105.676548,116.597903 C105.152697,113.828039 104.946025,111.007178 105.060554,108.190223 L105.060554,91.0356419 C104.946199,88.2204855 105.152305,85.4014284 105.674874,82.6331571 Z" id="Path" fill="#FFFFFF" fill-rule="nonzero"></path>
                <path d="M116.959962,78 L116.959962,89.2147701 L119.619824,89.2147701 L119.631916,88.8614513 C119.875482,81.5639124 122.659684,81.2556937 128.932927,81.2556937 C129.148854,81.2556937 129.364782,81.2556937 129.57715,81.2539618 C131.136854,81.24357 132.608408,81.2349103 133.186955,81.8116512 C133.390806,82.0308489 133.495211,82.3247882 133.475434,82.623834 L133.475434,112.104854 C133.475434,116.479235 132.863928,118.28717 126.72031,118.541802 L126.369644,118.555658 L126.369644,121.227666 C126.369644,121.227666 133.532283,120.964409 137.676672,120.964409 C140.840665,120.964409 147.904374,121.227666 147.904374,121.227666 L147.904374,118.555606 L147.553847,118.54175 C141.408381,118.287153 140.798723,116.479183 140.798723,112.104802 L140.798723,82.6237127 C140.786501,82.351355 140.88862,82.086316 141.080292,81.8929318 C141.788534,81.1949541 143.740258,81.2245012 145.308478,81.2470166 C145.605594,81.2522125 145.897528,81.2556764 146.173915,81.2556764 C152.308947,81.2556764 154.286531,83.0358314 154.644107,88.871895 L154.664836,89.2148221 L157.305783,89.2148221 L157.305783,78 C157.305783,78 141.823912,78.1012154 137.132881,78.1012154 C132.44185,78.1012154 116.959962,78 116.959962,78 Z" id="Path" fill="#FFFFFF" fill-rule="nonzero"></path>
                <path d="M85.5336916,118.542577 C83.1245593,118.4883 80.88042,117.306537 79.4719987,115.350491 L66.7226012,100.70864 C73.4362852,99.8332267 77.5748334,95.3920673 77.5748334,88.9803488 C77.8534613,85.319469 75.986635,81.8286579 72.7877534,80.0289044 C69.5852779,78.519096 66.0565373,77.8334387 62.5219414,78.0341902 C61.176413,78.067066 57.9406896,78.1785496 54.3763157,78.1785496 C50.6798139,78.1785496 43,78.0289993 43,78.0289993 L43,80.7123234 L43.5326627,80.7123234 C45.5681308,80.7001074 47.8597079,80.7088455 48.4668147,82.6431374 C48.9261973,85.2638197 49.11339,87.925007 49.0254048,90.5842215 L49.0254048,108.196557 C49.0664617,110.505055 48.9800437,112.81406 48.7665456,115.113023 C48.7122315,115.620783 48.6113309,116.122466 48.4651196,116.611728 C47.842446,118.539099 45.3607113,118.539099 43.3649559,118.539099 L43,118.539099 L43,121.222388 C43,121.222388 48.9776665,120.959468 52.9736916,120.959468 C56.4090164,120.959468 62.3837079,121.215709 62.3835176,121.222388 L62.3835176,118.539099 L61.8525154,118.539099 C59.8497896,118.54775 57.5790547,118.542559 56.9166856,116.60825 C56.7710614,116.120056 56.6703629,115.619563 56.6158478,115.113023 C56.4102532,112.970878 56.3242138,110.81893 56.3581301,108.667201 L56.3581301,101.466566 C58.7430737,101.48733 58.950597,101.738224 60.1784402,103.220855 C60.4050242,103.494243 60.6644715,103.805698 60.9637007,104.151673 L71.6048292,117.36083 L74.7334181,121.222371 C74.7334181,121.222371 78.1639172,121.077579 79.8311603,121.077579 C82.2553497,121.077579 85.8434198,121.227666 85.8434198,121.227666 L85.8434198,118.590939 L85.5336916,118.542577 Z M56.3581128,98.5322625 C56.3581128,98.5322625 56.3563832,82.9355418 56.3546535,82.8437837 C56.3442756,82.2209773 56.3269791,81.3697705 56.8458738,81.1293272 C58.1838216,81.0393779 59.5259062,81.0284003 60.8651454,81.0964513 C66.3335859,81.0964513 69.4725354,84.2988673 69.4725354,89.8784815 C69.4725354,93.9458429 68.3916259,96.279749 65.9686819,97.4493321 C63.7100199,98.540913 56.3581128,98.5322625 56.3581128,98.5322625 Z" id="Shape" fill="#FFFFFF" fill-rule="nonzero"></path>
            </g>
        </g>
    </g>
</svg>