<?xml version="1.0" encoding="UTF-8"?>
<svg width="200px" height="200px" viewBox="0 0 200 200" version="1.1" xmlns="http://www.w3.org/2000/svg" xmlns:xlink="http://www.w3.org/1999/xlink">
    <!-- Generator: Sketch 58 (84663) - https://sketch.com -->
    <title>turbotax</title>
    <desc>Created with Sketch.</desc>
    <defs>
        <radialGradient cx="51.4637529%" cy="50%" fx="51.4637529%" fy="50%" r="50%" id="radialGradient-1">
            <stop stop-color="#FFFFFF" offset="0%"></stop>
            <stop stop-color="#4196E0" offset="92.0159417%"></stop>
            <stop stop-color="#4196E0" offset="100%"></stop>
        </radialGradient>
    </defs>
    <g id="turbotax" stroke="none" stroke-width="1" fill="none" fill-rule="evenodd">
        <circle id="Oval" stroke="#4196E0" stroke-width="6" fill="url(#radialGradient-1)" cx="100" cy="100" r="97"></circle>
        <g id="Group" transform="translate(30.000000, 30.000000)">
            <circle id="Oval" stroke="#FFFFFF" stroke-width="4" fill="#D42B1E" cx="70" cy="70" r="72"></circle>
            <path d="M27.5790863,95.3561023 C33.6082797,100.098134 39.6374732,104.630716 45.6666667,108.953846 C51.5036837,113.13918 56.9495823,116.931891 62.0043624,120.331979 L62.0043397,120.332012 C62.462618,120.640272 63.0840201,120.518659 63.3922801,120.06038 C63.4255742,120.010883 63.4543728,119.958506 63.4783314,119.903876 C70.8837175,103.018212 78.5020515,89.5528173 86.3333333,79.5076923 C94.228719,69.3803419 104.288588,59.0357106 116.51294,48.4737985 L116.512915,48.4737697 C116.820203,48.2082706 116.936406,47.7832963 116.806964,47.3983798 C116.230606,45.6844931 114.961618,43.4491357 113,40.6923077 C111.044114,37.9435358 109.260375,35.8860004 107.648783,34.5197015 L107.648788,34.5196963 C107.282445,34.2091124 106.747041,34.2028305 106.373511,34.5047335 C95.5209892,43.2762162 85.9520411,52.4772025 77.6666667,62.1076923 C69.2222222,71.9230769 61.8888889,83.0769231 55.6666667,95.5692308 L34.7387875,78.3805636 C34.3120016,78.0300321 33.6818615,78.0918485 33.33133,78.5186344 C33.2631179,78.6016853 33.2087398,78.6951891 33.1702883,78.7955476 L27.2634775,94.2123237 C27.1067055,94.6215527 27.2346312,95.0851843 27.5790863,95.3561023 Z" id="Path-2" fill="#FFFFFF"></path>
        </g>
    </g>
</svg>