<?xml version="1.0" encoding="UTF-8"?>
<svg width="200px" height="200px" viewBox="0 0 200 200" version="1.1" xmlns="http://www.w3.org/2000/svg" xmlns:xlink="http://www.w3.org/1999/xlink">
    <!-- Generator: Sketch 58 (84663) - https://sketch.com -->
    <title>turbotax</title>
    <desc>Created with Sketch.</desc>
    <g id="Page-1" stroke="none" stroke-width="1" fill="none" fill-rule="evenodd">
        <g id="turbotax" fill="#D8D8D8">
            <circle id="Oval" fill="#D42B1E" cx="100" cy="100" r="100"></circle>
            <path d="M34.5814305,137.456407 C43.7209537,144.623905 52.8604768,151.471769 62,158 C70.9482136,164.391581 79.2836426,170.170378 87.0062869,175.33639 L87.0062966,175.336375 C87.4653344,175.643445 88.0863876,175.520251 88.3934578,175.061214 C88.4261136,175.012397 88.4544051,174.960798 88.4780043,174.907015 C99.6613058,149.42019 111.168638,129.117852 123,114 C134.896344,98.7991162 150.068683,83.2706328 168.517018,67.4145499 L168.517033,67.4145676 C168.81909,67.1549534 168.938289,66.740845 168.820477,66.3603735 C168.014526,63.7575715 166.074367,60.3041137 163,56 C159.930226,51.7023158 157.143157,48.5354533 154.638793,46.4994128 L154.638816,46.4993842 C154.273009,46.2019839 153.749177,46.2004601 153.381645,46.495727 C136.970332,59.6802298 122.509784,73.5149874 110,88 C97.3333333,102.666667 86.3333333,119.333333 77,138 L45.0702001,111.875618 C44.6427553,111.525891 44.0127326,111.588893 43.663005,112.016338 C43.595622,112.098695 43.5418158,112.191279 43.5036167,112.290597 L34.2651673,136.310565 C34.1075219,136.720521 34.2358133,137.185363 34.5814305,137.456407 Z" id="Path-2" fill="#FFFFFF"></path>
        </g>
    </g>
</svg>